<svg version="1.1" id="Layer_1" xmlns="http://www.w3.org/2000/svg" xmlns:xlink="http://www.w3.org/1999/xlink" x="0px" y="0px"
	 width="100%" viewBox="0 0 2000 1500" enable-background="new 0 0 2000 1500" xml:space="preserve">
<path fill="#FFFFFF" opacity="1.000000" stroke="none" 
	d="
M1014.000000,1501.000000 
	C676.000122,1501.000000 338.500214,1501.000000 1.000226,1501.000000 
	C1.000151,1001.000244 1.000151,501.000488 1.000075,1.000562 
	C667.666199,1.000375 1334.332397,1.000375 2000.999023,1.000187 
	C2000.999268,500.999390 2000.999268,1000.998779 2000.999634,1500.999023 
	C1672.166626,1501.000000 1343.333374,1501.000000 1014.000000,1501.000000 
M819.807434,1031.702393 
	C842.319519,1034.150879 864.834961,1036.569336 887.342896,1039.055542 
	C915.975464,1042.218018 944.611755,1045.350220 973.227173,1048.661743 
	C989.439575,1050.537842 1005.488159,1051.756714 1021.914246,1049.569702 
	C1053.103394,1045.417236 1084.451538,1042.457886 1115.734985,1039.015137 
	C1147.348755,1035.535889 1178.965820,1032.085938 1210.578491,1028.596069 
	C1242.356689,1025.088013 1274.129639,1021.532166 1305.907837,1018.023682 
	C1337.521973,1014.533325 1369.141846,1011.095520 1400.755249,1007.598083 
	C1432.366333,1004.100830 1463.969604,1000.532471 1495.581421,997.042664 
	C1530.175049,993.223877 1564.776367,989.477478 1599.370728,985.666016 
	C1634.625366,981.781860 1669.876221,977.862427 1705.127319,973.946167 
	C1714.655029,972.887695 1724.177734,971.784668 1733.575928,970.716431 
	C1733.575928,823.876526 1733.575928,677.619629 1733.575928,531.238220 
	C1714.747803,529.143372 1696.221436,527.067200 1677.691528,525.023804 
	C1649.055908,521.866089 1620.416138,518.745239 1591.781128,515.582092 
	C1560.001953,512.071716 1528.226685,508.526550 1496.448853,505.005493 
	C1464.671387,501.484436 1432.892822,497.974121 1401.114746,494.459625 
	C1369.667603,490.981720 1338.221558,487.494873 1306.773071,484.029694 
	C1275.160156,480.546509 1243.542969,477.102325 1211.931030,473.609650 
	C1180.153320,470.098663 1148.380127,466.544708 1116.604126,463.017517 
	C1087.642334,459.802673 1058.671265,456.669739 1029.720215,453.361755 
	C1013.345032,451.490723 997.135315,450.204468 980.533813,452.417847 
	C949.015076,456.620026 917.328857,459.564819 885.713318,463.042084 
	C854.430420,466.482697 823.147949,469.927917 791.867004,473.385834 
	C759.922974,476.916992 727.981995,480.475433 696.037720,484.004730 
	C664.590881,487.479065 633.140869,490.924133 601.693787,494.396210 
	C572.728210,497.594330 543.765198,500.815247 514.800232,504.018585 
	C486.333008,507.166870 457.864288,510.301971 429.397034,513.449585 
	C397.618958,516.963257 365.841827,520.485168 334.064178,524.002747 
	C312.245361,526.417908 290.426422,528.831604 268.445374,531.263916 
	C268.445374,677.872681 268.445374,824.256836 268.445374,970.692566 
	C293.593414,973.479431 318.410522,976.242798 343.230835,978.976807 
	C374.844360,982.459229 406.462860,985.896790 438.074860,989.392761 
	C469.687256,992.888672 501.291595,996.456909 532.904358,999.948975 
	C564.518494,1003.441284 596.141479,1006.853638 627.755493,1010.346863 
	C659.534668,1013.858276 691.306030,1017.440063 723.083618,1020.965210 
	C755.025818,1024.508667 786.971436,1028.020508 819.807434,1031.702393 
z"/>
<path fill="#012040" opacity="1.000000" stroke="none" 
	d="
M819.361511,1031.624268 
	C786.971436,1028.020508 755.025818,1024.508667 723.083618,1020.965210 
	C691.306030,1017.440063 659.534668,1013.858276 627.755493,1010.346863 
	C596.141479,1006.853638 564.518494,1003.441284 532.904358,999.948975 
	C501.291595,996.456909 469.687256,992.888672 438.074860,989.392761 
	C406.462860,985.896790 374.844360,982.459229 343.230835,978.976807 
	C318.410522,976.242798 293.593414,973.479431 268.445374,970.692566 
	C268.445374,824.256836 268.445374,677.872681 268.445374,531.263916 
	C290.426422,528.831604 312.245361,526.417908 334.064178,524.002747 
	C365.841827,520.485168 397.618958,516.963257 429.397034,513.449585 
	C457.864288,510.301971 486.333008,507.166870 514.800232,504.018585 
	C543.765198,500.815247 572.728210,497.594330 601.693787,494.396210 
	C633.140869,490.924133 664.590881,487.479065 696.037720,484.004730 
	C727.981995,480.475433 759.922974,476.916992 791.867004,473.385834 
	C823.147949,469.927917 854.430420,466.482697 885.713318,463.042084 
	C917.328857,459.564819 949.015076,456.620026 980.533813,452.417847 
	C997.135315,450.204468 1013.345032,451.490723 1029.720215,453.361755 
	C1058.671265,456.669739 1087.642334,459.802673 1116.604126,463.017517 
	C1148.380127,466.544708 1180.153320,470.098663 1211.931030,473.609650 
	C1243.542969,477.102325 1275.160156,480.546509 1306.773071,484.029694 
	C1338.221558,487.494873 1369.667603,490.981720 1401.114746,494.459625 
	C1432.892822,497.974121 1464.671387,501.484436 1496.448853,505.005493 
	C1528.226685,508.526550 1560.001953,512.071716 1591.781128,515.582092 
	C1620.416138,518.745239 1649.055908,521.866089 1677.691528,525.023804 
	C1696.221436,527.067200 1714.747803,529.143372 1733.575928,531.238220 
	C1733.575928,677.619629 1733.575928,823.876526 1733.575928,970.716431 
	C1724.177734,971.784668 1714.655029,972.887695 1705.127319,973.946167 
	C1669.876221,977.862427 1634.625366,981.781860 1599.370728,985.666016 
	C1564.776367,989.477478 1530.175049,993.223877 1495.581421,997.042664 
	C1463.969604,1000.532471 1432.366333,1004.100830 1400.755249,1007.598083 
	C1369.141846,1011.095520 1337.521973,1014.533325 1305.907837,1018.023682 
	C1274.129639,1021.532166 1242.356689,1025.088013 1210.578491,1028.596069 
	C1178.965820,1032.085938 1147.348755,1035.535889 1115.734985,1039.015137 
	C1084.451538,1042.457886 1053.103394,1045.417236 1021.914246,1049.569702 
	C1005.488159,1051.756714 989.439575,1050.537842 973.227173,1048.661743 
	C944.611755,1045.350220 915.975464,1042.218018 887.342896,1039.055542 
	C864.834961,1036.569336 842.319519,1034.150879 819.361511,1031.624268 
M973.771057,848.494629 
	C973.771057,852.603577 973.771057,856.712524 973.771057,860.810608 
	C985.527039,860.810608 996.728882,860.810608 1008.374146,860.810608 
	C1008.374146,801.207092 1008.374146,741.972290 1008.374146,682.737549 
	C1008.646301,682.706787 1008.918457,682.675964 1009.190613,682.645203 
	C1024.548340,742.099243 1039.905884,801.553223 1055.214722,860.818054 
	C1068.766235,860.818054 1081.820923,860.818054 1094.794922,860.818054 
	C1094.794922,778.722351 1094.794922,696.989136 1094.794922,615.254395 
	C1083.294434,615.254395 1072.063110,615.254395 1060.414795,615.254395 
	C1060.414795,664.037598 1060.414795,712.490723 1060.414795,760.943848 
	C1059.485107,760.279053 1059.199585,759.543823 1059.005493,758.785217 
	C1047.094116,712.253662 1035.134766,665.734192 1023.395691,619.159241 
	C1022.500061,615.605713 1021.125122,614.761536 1017.720337,614.842712 
	C1008.062134,615.072876 998.394836,614.923401 988.731140,614.923401 
	C983.796509,614.923401 978.861877,614.923401 973.771057,614.923401 
	C973.771057,692.895264 973.771057,770.195251 973.771057,848.494629 
M819.099365,816.500000 
	C818.735413,801.190796 819.083130,785.822144 817.808838,770.589050 
	C816.513489,755.103455 810.618835,741.809692 794.351257,736.027710 
	C794.193359,735.971619 794.160828,735.562622 793.974365,735.062500 
	C808.871216,728.694336 816.318054,716.299011 817.487122,701.154358 
	C818.695679,685.497437 818.727966,669.478882 816.823730,653.918518 
	C814.226990,632.698853 801.870483,620.745972 780.673767,616.961243 
	C770.925049,615.220703 760.815735,615.193665 750.858154,614.999878 
	C735.410706,614.699280 719.953003,614.920532 704.323853,614.920532 
	C704.323853,697.185059 704.323853,779.046265 704.323853,860.932617 
	C717.209534,860.932617 729.800842,860.932617 742.929443,860.932617 
	C742.929443,825.805786 742.929443,790.925110 742.929443,755.969421 
	C749.273499,755.969421 755.094360,755.692627 760.879333,756.029968 
	C771.243286,756.634460 777.383179,761.659851 778.927002,772.007446 
	C780.171692,780.350281 780.170593,788.906372 780.345764,797.375610 
	C780.697205,814.362915 780.521667,831.364441 781.082764,848.342957 
	C781.485840,860.541443 782.530151,861.183594 794.107971,861.183594 
	C794.941040,861.183594 795.774048,861.183594 796.607117,861.183594 
	C805.333130,861.183594 814.059143,861.183594 823.121399,861.183594 
	C817.797180,846.497131 819.437012,831.914246 819.099365,816.500000 
M1153.500000,861.183289 
	C1165.496582,861.128357 1177.501831,861.344788 1189.487915,860.962769 
	C1215.486938,860.134277 1232.774048,846.347473 1238.413940,821.454468 
	C1240.161621,813.740662 1240.708618,805.619629 1240.756714,797.678711 
	C1240.988403,759.521301 1240.901245,721.361694 1240.823242,683.203003 
	C1240.809692,676.550232 1240.520020,669.880310 1239.977295,663.249451 
	C1237.899536,637.864441 1223.416992,620.898682 1199.128540,616.480469 
	C1190.527954,614.915955 1181.561768,615.099854 1172.755859,614.982178 
	C1156.640381,614.766724 1140.519897,614.920837 1124.261841,614.920837 
	C1124.261841,697.204773 1124.261841,779.073364 1124.261841,861.183289 
	C1133.875977,861.183289 1143.187988,861.183289 1153.500000,861.183289 
M504.915100,854.449524 
	C504.915100,856.566101 504.915100,858.682739 504.915100,861.183289 
	C524.524292,861.183289 543.643188,861.207275 562.761963,861.163086 
	C566.589539,861.154236 570.450989,861.163574 574.238098,860.692505 
	C599.551086,857.543701 614.104004,845.059998 619.447693,821.133972 
	C621.101135,813.730835 621.664856,805.953918 621.705322,798.342651 
	C621.918823,758.190735 621.891479,718.036682 621.723755,677.884338 
	C621.694702,670.926392 621.149536,663.869202 619.877441,657.037537 
	C616.445129,638.604065 606.995300,624.584595 588.400146,618.667786 
	C581.983276,616.625977 575.074707,615.340027 568.356323,615.183044 
	C548.040649,614.708557 527.708069,614.952881 507.382050,614.939270 
	C506.613525,614.938782 505.844849,615.169250 504.915100,615.317871 
	C504.915100,694.876221 504.915100,774.166748 504.915100,854.449524 
M1394.665405,649.499878 
	C1394.665405,719.908264 1394.665405,790.316650 1394.665405,860.919678 
	C1407.710571,860.919678 1420.269653,860.919678 1433.374756,860.919678 
	C1433.374756,825.792297 1433.374756,790.923096 1433.374756,755.762939 
	C1437.904785,755.762939 1441.890625,755.733643 1445.875854,755.774597 
	C1448.039795,755.796814 1450.215210,755.818481 1452.363403,756.047058 
	C1461.612915,757.031311 1467.017944,761.392761 1469.124634,770.507812 
	C1470.311401,775.643127 1470.845581,781.025208 1470.913330,786.305847 
	C1471.148193,804.626526 1470.823730,822.956116 1471.198486,841.272400 
	C1471.334595,847.921875 1472.838745,854.543396 1473.672729,860.830078 
	C1487.729004,860.830078 1500.433594,860.830078 1511.981201,860.830078 
	C1511.241699,851.171265 1510.121704,841.800964 1509.897339,832.409302 
	C1509.539307,817.425720 1510.093506,802.418213 1509.638916,787.439758 
	C1509.382690,779.000244 1508.448853,770.485046 1506.802246,762.206482 
	C1504.353516,749.896240 1497.660522,740.571228 1485.236572,736.280640 
	C1484.863037,736.151672 1484.577759,735.767273 1484.007446,735.303650 
	C1498.329956,729.259827 1506.049438,717.846863 1507.601929,703.403748 
	C1509.176147,688.758240 1509.862427,673.696533 1508.289307,659.102661 
	C1505.329590,631.645752 1491.976929,618.217224 1464.585693,616.032104 
	C1441.739868,614.209534 1418.666748,615.233887 1395.693970,615.023560 
	C1395.423096,615.021057 1395.149048,615.367126 1394.665283,615.692444 
	C1394.665283,626.534729 1394.665283,637.517273 1394.665405,649.499878 
M443.923645,615.484619 
	C432.067169,611.167786 419.818390,610.468384 407.477234,612.176819 
	C390.044128,614.590088 376.566193,622.995178 368.822998,639.323486 
	C361.893005,653.937073 361.920776,669.504150 362.355072,685.419556 
	C374.653503,685.419556 386.559082,685.419556 398.932648,685.419556 
	C398.932648,680.547852 398.876831,675.924805 398.952667,671.303833 
	C399.001740,668.312500 398.930328,665.268250 399.454529,662.344788 
	C401.383179,651.588501 407.096191,646.709045 417.395844,646.681885 
	C427.478149,646.655396 434.888397,652.227966 435.864502,662.531433 
	C436.910980,673.577576 437.229492,684.853210 436.263885,695.888550 
	C435.078094,709.440552 427.997284,714.888916 414.227631,715.099731 
	C409.457214,715.172791 404.684753,715.111389 399.980103,715.111389 
	C399.980103,727.205627 399.980103,738.616699 399.980103,750.741089 
	C405.945068,750.741089 411.618591,750.310181 417.203369,750.830872 
	C428.793427,751.911377 435.819763,757.702271 436.657166,769.237793 
	C437.724823,783.944580 437.343842,798.800720 436.780609,813.561646 
	C436.530914,820.105164 432.898285,825.489746 426.238098,828.110535 
	C413.165924,833.254456 401.317261,827.024780 398.590668,813.329712 
	C397.979492,810.259827 397.970306,807.044556 397.925415,803.892761 
	C397.831055,797.261963 397.896729,790.628906 397.896729,783.814209 
	C385.460297,783.814209 373.420288,783.814209 362.071014,783.814209 
	C362.071014,795.184387 361.212250,806.238708 362.247101,817.112854 
	C364.505615,840.845581 378.288147,857.480347 399.527069,862.354370 
	C407.375122,864.155334 415.722473,864.914124 423.764832,864.530212 
	C452.059631,863.179565 469.245880,849.605225 474.527222,823.954773 
	C478.381836,805.233643 477.761475,786.125610 475.442902,767.236084 
	C473.424957,750.796021 465.397644,738.162048 449.309021,731.774658 
	C449.086914,731.686523 448.989288,731.284851 448.632599,730.699951 
	C449.319885,730.337219 449.968994,729.943726 450.657349,729.638977 
	C464.161560,723.659973 471.407440,712.847229 473.955750,698.731201 
	C476.672241,683.683533 476.656891,668.497314 473.801666,653.509277 
	C470.500763,636.181458 461.727112,622.670227 443.923645,615.484619 
M1596.628540,611.883118 
	C1590.144897,611.941833 1583.594727,611.425598 1577.190308,612.167603 
	C1558.283081,614.358154 1543.339233,623.328186 1536.362061,641.448242 
	C1526.337158,667.483704 1527.609131,693.433960 1543.825684,716.721375 
	C1551.920776,728.346313 1562.735962,738.107544 1572.551514,748.493652 
	C1579.522705,755.870056 1587.245239,762.556763 1593.981445,770.130310 
	C1604.712891,782.195801 1607.877197,796.753845 1605.926514,812.507874 
	C1605.041138,819.658508 1602.051636,825.529602 1594.673584,828.227356 
	C1580.520142,833.402466 1568.407471,826.179810 1566.858276,811.279541 
	C1566.257324,805.499817 1566.468140,799.636169 1566.294067,793.811157 
	C1566.246582,792.220886 1566.144287,790.632141 1566.067383,789.047241 
	C1553.827271,789.047241 1542.064575,789.047241 1529.964478,789.047241 
	C1529.836182,802.058472 1529.278198,814.820312 1532.894165,827.349182 
	C1538.523193,846.853333 1550.685303,859.701111 1570.994873,862.959839 
	C1580.394897,864.468079 1590.318237,864.814941 1599.744507,863.626770 
	C1620.114014,861.059082 1634.950073,849.935425 1640.870850,829.945923 
	C1649.230713,801.721130 1647.209473,774.266479 1628.406860,750.377625 
	C1619.713379,739.332336 1608.765015,730.071533 1598.942261,719.901855 
	C1592.010986,712.725891 1584.680054,705.830322 1578.559937,698.002502 
	C1570.426636,687.599487 1567.571289,675.401489 1569.918335,662.203247 
	C1571.768433,651.799988 1577.976685,646.642273 1588.625732,646.680359 
	C1599.269775,646.718384 1605.572266,651.791626 1607.038330,662.415527 
	C1607.983398,669.264404 1607.951538,676.248047 1608.360352,683.217957 
	C1620.386108,683.217957 1632.280029,683.217957 1645.123291,683.217957 
	C1644.350952,673.381042 1644.254517,663.861145 1642.748169,654.569824 
	C1638.722534,629.739746 1621.915405,614.220764 1596.628540,611.883118 
M894.518555,715.123169 
	C891.275208,715.123169 888.031799,715.123169 884.872070,715.123169 
	C884.872070,693.067200 884.872070,671.789490 884.872070,649.935059 
	C907.108154,649.935059 929.136169,649.935059 951.108643,649.935059 
	C951.108643,637.956665 951.108643,626.560181 951.108643,615.269287 
	C915.875793,615.269287 880.986877,615.269287 846.176697,615.269287 
	C846.176697,697.346252 846.176697,779.075256 846.176697,860.895142 
	C881.308777,860.895142 916.189331,860.895142 951.182190,860.895142 
	C951.182190,849.184326 951.182190,837.762451 951.182190,825.796204 
	C928.875183,825.796204 906.833191,825.796204 884.882385,825.796204 
	C884.882385,800.460510 884.882385,775.672058 884.882385,750.362427 
	C902.508484,750.362427 919.919617,750.362427 937.578430,750.362427 
	C937.578430,738.439026 937.578430,727.038391 937.578430,715.123169 
	C923.400696,715.123169 909.456421,715.123169 894.518555,715.123169 
M1305.611694,712.455566 
	C1305.611694,691.820068 1305.611694,671.184631 1305.611694,649.994629 
	C1328.035889,649.994629 1350.107666,649.994629 1372.055298,649.994629 
	C1372.055298,638.030273 1372.055298,626.624756 1372.055298,615.275452 
	C1336.838379,615.275452 1301.949097,615.275452 1267.196655,615.275452 
	C1267.196655,697.384338 1267.196655,779.138794 1267.196655,860.832275 
	C1302.392822,860.832275 1337.292847,860.832275 1372.009033,860.832275 
	C1372.009033,849.082031 1372.009033,837.685181 1372.009033,825.880493 
	C1349.709229,825.880493 1327.779297,825.880493 1305.961426,825.880493 
	C1305.961426,800.553101 1305.961426,775.645874 1305.961426,750.151489 
	C1323.692505,750.151489 1341.078979,750.151489 1358.408325,750.151489 
	C1358.408325,738.160217 1358.408325,726.763977 1358.408325,715.122803 
	C1342.047485,715.122803 1326.060425,715.166809 1310.074585,715.049927 
	C1308.590454,715.039124 1307.113525,714.007324 1305.611694,712.455566 
z"/>
<path fill="#F0F0F0" opacity="1.000000" stroke="none" 
	d="
M973.771057,847.994934 
	C973.771057,770.195251 973.771057,692.895264 973.771057,614.923401 
	C978.861877,614.923401 983.796509,614.923401 988.731140,614.923401 
	C998.394836,614.923401 1008.062134,615.072876 1017.720337,614.842712 
	C1021.125122,614.761536 1022.500061,615.605713 1023.395691,619.159241 
	C1035.134766,665.734192 1047.094116,712.253662 1059.005493,758.785217 
	C1059.199585,759.543823 1059.485107,760.279053 1060.414795,760.943848 
	C1060.414795,712.490723 1060.414795,664.037598 1060.414795,615.254395 
	C1072.063110,615.254395 1083.294434,615.254395 1094.794922,615.254395 
	C1094.794922,696.989136 1094.794922,778.722351 1094.794922,860.818054 
	C1081.820923,860.818054 1068.766235,860.818054 1055.214722,860.818054 
	C1039.905884,801.553223 1024.548340,742.099243 1009.190613,682.645203 
	C1008.918457,682.675964 1008.646301,682.706787 1008.374146,682.737549 
	C1008.374146,741.972290 1008.374146,801.207092 1008.374146,860.810608 
	C996.728882,860.810608 985.527039,860.810608 973.771057,860.810608 
	C973.771057,856.712524 973.771057,852.603577 973.771057,847.994934 
z"/>
<path fill="#EEEFEF" opacity="1.000000" stroke="none" 
	d="
M819.099365,817.000000 
	C819.437012,831.914246 817.797180,846.497131 823.121399,861.183594 
	C814.059143,861.183594 805.333130,861.183594 796.607117,861.183594 
	C795.774048,861.183594 794.941040,861.183594 794.107971,861.183594 
	C782.530151,861.183594 781.485840,860.541443 781.082764,848.342957 
	C780.521667,831.364441 780.697205,814.362915 780.345764,797.375610 
	C780.170593,788.906372 780.171692,780.350281 778.927002,772.007446 
	C777.383179,761.659851 771.243286,756.634460 760.879333,756.029968 
	C755.094360,755.692627 749.273499,755.969421 742.929443,755.969421 
	C742.929443,790.925110 742.929443,825.805786 742.929443,860.932617 
	C729.800842,860.932617 717.209534,860.932617 704.323853,860.932617 
	C704.323853,779.046265 704.323853,697.185059 704.323853,614.920532 
	C719.953003,614.920532 735.410706,614.699280 750.858154,614.999878 
	C760.815735,615.193665 770.925049,615.220703 780.673767,616.961243 
	C801.870483,620.745972 814.226990,632.698853 816.823730,653.918518 
	C818.727966,669.478882 818.695679,685.497437 817.487122,701.154358 
	C816.318054,716.299011 808.871216,728.694336 793.974365,735.062500 
	C794.160828,735.562622 794.193359,735.971619 794.351257,736.027710 
	C810.618835,741.809692 816.513489,755.103455 817.808838,770.589050 
	C819.083130,785.822144 818.735413,801.190796 819.099365,817.000000 
M773.030823,715.605957 
	C775.024109,712.046692 778.555176,708.563660 778.736084,704.914551 
	C779.408386,691.358032 779.652405,677.700195 778.714355,664.173462 
	C778.132629,655.783875 772.406128,651.107300 764.034729,650.374268 
	C757.149353,649.771362 750.169067,650.251343 743.163330,650.251343 
	C743.163330,673.743835 743.163330,696.949585 743.163330,720.424255 
	C746.944275,720.424255 750.421387,720.414368 753.898376,720.426453 
	C760.430420,720.449158 766.917542,720.293701 773.030823,715.605957 
z"/>
<path fill="#EEEFEF" opacity="1.000000" stroke="none" 
	d="
M1153.000000,861.183289 
	C1143.187988,861.183289 1133.875977,861.183289 1124.261841,861.183289 
	C1124.261841,779.073364 1124.261841,697.204773 1124.261841,614.920837 
	C1140.519897,614.920837 1156.640381,614.766724 1172.755859,614.982178 
	C1181.561768,615.099854 1190.527954,614.915955 1199.128540,616.480469 
	C1223.416992,620.898682 1237.899536,637.864441 1239.977295,663.249451 
	C1240.520020,669.880310 1240.809692,676.550232 1240.823242,683.203003 
	C1240.901245,721.361694 1240.988403,759.521301 1240.756714,797.678711 
	C1240.708618,805.619629 1240.161621,813.740662 1238.413940,821.454468 
	C1232.774048,846.347473 1215.486938,860.134277 1189.487915,860.962769 
	C1177.501831,861.344788 1165.496582,861.128357 1153.000000,861.183289 
M1202.032959,778.500000 
	C1202.032959,750.181396 1202.039307,721.862854 1202.028809,693.544250 
	C1202.025879,685.715393 1202.220215,677.875977 1201.884888,670.060242 
	C1201.380981,658.316833 1196.013428,651.378784 1185.966187,650.406555 
	C1178.419922,649.676331 1170.746582,650.262268 1162.963501,650.262268 
	C1162.963501,708.884216 1162.963501,767.253723 1162.963501,826.033081 
	C1168.823853,826.033081 1174.452515,826.041260 1180.081177,826.031494 
	C1195.009766,826.005737 1201.642334,819.557800 1201.966553,804.486084 
	C1202.145630,796.160767 1202.020752,787.828918 1202.032959,778.500000 
z"/>
<path fill="#EEEFEF" opacity="1.000000" stroke="none" 
	d="
M504.915100,853.953369 
	C504.915100,774.166748 504.915100,694.876221 504.915100,615.317871 
	C505.844849,615.169250 506.613525,614.938782 507.382050,614.939270 
	C527.708069,614.952881 548.040649,614.708557 568.356323,615.183044 
	C575.074707,615.340027 581.983276,616.625977 588.400146,618.667786 
	C606.995300,624.584595 616.445129,638.604065 619.877441,657.037537 
	C621.149536,663.869202 621.694702,670.926392 621.723755,677.884338 
	C621.891479,718.036682 621.918823,758.190735 621.705322,798.342651 
	C621.664856,805.953918 621.101135,813.730835 619.447693,821.133972 
	C614.104004,845.059998 599.551086,857.543701 574.238098,860.692505 
	C570.450989,861.163574 566.589539,861.154236 562.761963,861.163086 
	C543.643188,861.207275 524.524292,861.183289 504.915100,861.183289 
	C504.915100,858.682739 504.915100,856.566101 504.915100,853.953369 
M582.997559,715.500000 
	C582.984558,700.841736 583.138489,686.180786 582.907654,671.525940 
	C582.710083,658.982422 577.555359,651.659119 567.341003,650.521973 
	C559.656555,649.666443 551.800537,650.352844 543.892822,650.352844 
	C543.892822,708.908447 543.892822,767.276123 543.892822,826.032898 
	C549.942261,826.032898 555.741516,826.046936 561.540649,826.030090 
	C575.466064,825.989685 581.970032,819.883911 582.888489,805.946777 
	C583.030640,803.789185 582.992920,801.617981 582.993408,799.453064 
	C582.999573,771.802063 582.997559,744.151001 582.997559,715.500000 
z"/>
<path fill="#EFEFEF" opacity="1.000000" stroke="none" 
	d="
M1394.665283,648.999878 
	C1394.665283,637.517273 1394.665283,626.534729 1394.665283,615.692444 
	C1395.149048,615.367126 1395.423096,615.021057 1395.693970,615.023560 
	C1418.666748,615.233887 1441.739868,614.209534 1464.585693,616.032104 
	C1491.976929,618.217224 1505.329590,631.645752 1508.289307,659.102661 
	C1509.862427,673.696533 1509.176147,688.758240 1507.601929,703.403748 
	C1506.049438,717.846863 1498.329956,729.259827 1484.007446,735.303650 
	C1484.577759,735.767273 1484.863037,736.151672 1485.236572,736.280640 
	C1497.660522,740.571228 1504.353516,749.896240 1506.802246,762.206482 
	C1508.448853,770.485046 1509.382690,779.000244 1509.638916,787.439758 
	C1510.093506,802.418213 1509.539307,817.425720 1509.897339,832.409302 
	C1510.121704,841.800964 1511.241699,851.171265 1511.981201,860.830078 
	C1500.433594,860.830078 1487.729004,860.830078 1473.672729,860.830078 
	C1472.838745,854.543396 1471.334595,847.921875 1471.198486,841.272400 
	C1470.823730,822.956116 1471.148193,804.626526 1470.913330,786.305847 
	C1470.845581,781.025208 1470.311401,775.643127 1469.124634,770.507812 
	C1467.017944,761.392761 1461.612915,757.031311 1452.363403,756.047058 
	C1450.215210,755.818481 1448.039795,755.796814 1445.875854,755.774597 
	C1441.890625,755.733643 1437.904785,755.762939 1433.374756,755.762939 
	C1433.374756,790.923096 1433.374756,825.792297 1433.374756,860.919678 
	C1420.269653,860.919678 1407.710571,860.919678 1394.665405,860.919678 
	C1394.665405,790.316650 1394.665405,719.908264 1394.665283,648.999878 
M1448.030640,720.450989 
	C1461.934326,719.379944 1468.883667,714.538574 1469.738892,703.094360 
	C1470.652710,690.866577 1470.396973,678.493347 1469.760132,666.229919 
	C1469.388672,659.078674 1465.799561,652.530151 1458.063965,651.223938 
	C1450.022583,649.866089 1441.710571,650.112122 1433.479248,649.654724 
	C1433.479248,673.834045 1433.479248,696.898926 1433.479248,720.460144 
	C1438.194336,720.460144 1442.655640,720.460144 1448.030640,720.450989 
z"/>
<path fill="#EEEEEE" opacity="1.000000" stroke="none" 
	d="
M444.275574,615.651001 
	C461.727112,622.670227 470.500763,636.181458 473.801666,653.509277 
	C476.656891,668.497314 476.672241,683.683533 473.955750,698.731201 
	C471.407440,712.847229 464.161560,723.659973 450.657349,729.638977 
	C449.968994,729.943726 449.319885,730.337219 448.632599,730.699951 
	C448.989288,731.284851 449.086914,731.686523 449.309021,731.774658 
	C465.397644,738.162048 473.424957,750.796021 475.442902,767.236084 
	C477.761475,786.125610 478.381836,805.233643 474.527222,823.954773 
	C469.245880,849.605225 452.059631,863.179565 423.764832,864.530212 
	C415.722473,864.914124 407.375122,864.155334 399.527069,862.354370 
	C378.288147,857.480347 364.505615,840.845581 362.247101,817.112854 
	C361.212250,806.238708 362.071014,795.184387 362.071014,783.814209 
	C373.420288,783.814209 385.460297,783.814209 397.896729,783.814209 
	C397.896729,790.628906 397.831055,797.261963 397.925415,803.892761 
	C397.970306,807.044556 397.979492,810.259827 398.590668,813.329712 
	C401.317261,827.024780 413.165924,833.254456 426.238098,828.110535 
	C432.898285,825.489746 436.530914,820.105164 436.780609,813.561646 
	C437.343842,798.800720 437.724823,783.944580 436.657166,769.237793 
	C435.819763,757.702271 428.793427,751.911377 417.203369,750.830872 
	C411.618591,750.310181 405.945068,750.741089 399.980103,750.741089 
	C399.980103,738.616699 399.980103,727.205627 399.980103,715.111389 
	C404.684753,715.111389 409.457214,715.172791 414.227631,715.099731 
	C427.997284,714.888916 435.078094,709.440552 436.263885,695.888550 
	C437.229492,684.853210 436.910980,673.577576 435.864502,662.531433 
	C434.888397,652.227966 427.478149,646.655396 417.395844,646.681885 
	C407.096191,646.709045 401.383179,651.588501 399.454529,662.344788 
	C398.930328,665.268250 399.001740,668.312500 398.952667,671.303833 
	C398.876831,675.924805 398.932648,680.547852 398.932648,685.419556 
	C386.559082,685.419556 374.653503,685.419556 362.355072,685.419556 
	C361.920776,669.504150 361.893005,653.937073 368.822998,639.323486 
	C376.566193,622.995178 390.044128,614.590088 407.477234,612.176819 
	C419.818390,610.468384 432.067169,611.167786 444.275574,615.651001 
z"/>
<path fill="#EEEEEF" opacity="1.000000" stroke="none" 
	d="
M1597.072632,611.919312 
	C1621.915405,614.220764 1638.722534,629.739746 1642.748169,654.569824 
	C1644.254517,663.861145 1644.350952,673.381042 1645.123291,683.217957 
	C1632.280029,683.217957 1620.386108,683.217957 1608.360352,683.217957 
	C1607.951538,676.248047 1607.983398,669.264404 1607.038330,662.415527 
	C1605.572266,651.791626 1599.269775,646.718384 1588.625732,646.680359 
	C1577.976685,646.642273 1571.768433,651.799988 1569.918335,662.203247 
	C1567.571289,675.401489 1570.426636,687.599487 1578.559937,698.002502 
	C1584.680054,705.830322 1592.010986,712.725891 1598.942261,719.901855 
	C1608.765015,730.071533 1619.713379,739.332336 1628.406860,750.377625 
	C1647.209473,774.266479 1649.230713,801.721130 1640.870850,829.945923 
	C1634.950073,849.935425 1620.114014,861.059082 1599.744507,863.626770 
	C1590.318237,864.814941 1580.394897,864.468079 1570.994873,862.959839 
	C1550.685303,859.701111 1538.523193,846.853333 1532.894165,827.349182 
	C1529.278198,814.820312 1529.836182,802.058472 1529.964478,789.047241 
	C1542.064575,789.047241 1553.827271,789.047241 1566.067383,789.047241 
	C1566.144287,790.632141 1566.246582,792.220886 1566.294067,793.811157 
	C1566.468140,799.636169 1566.257324,805.499817 1566.858276,811.279541 
	C1568.407471,826.179810 1580.520142,833.402466 1594.673584,828.227356 
	C1602.051636,825.529602 1605.041138,819.658508 1605.926514,812.507874 
	C1607.877197,796.753845 1604.712891,782.195801 1593.981445,770.130310 
	C1587.245239,762.556763 1579.522705,755.870056 1572.551514,748.493652 
	C1562.735962,738.107544 1551.920776,728.346313 1543.825684,716.721375 
	C1527.609131,693.433960 1526.337158,667.483704 1536.362061,641.448242 
	C1543.339233,623.328186 1558.283081,614.358154 1577.190308,612.167603 
	C1583.594727,611.425598 1590.144897,611.941833 1597.072632,611.919312 
z"/>
<path fill="#EFEFEF" opacity="1.000000" stroke="none" 
	d="
M895.015320,715.123169 
	C909.456421,715.123169 923.400696,715.123169 937.578430,715.123169 
	C937.578430,727.038391 937.578430,738.439026 937.578430,750.362427 
	C919.919617,750.362427 902.508484,750.362427 884.882385,750.362427 
	C884.882385,775.672058 884.882385,800.460510 884.882385,825.796204 
	C906.833191,825.796204 928.875183,825.796204 951.182190,825.796204 
	C951.182190,837.762451 951.182190,849.184326 951.182190,860.895142 
	C916.189331,860.895142 881.308777,860.895142 846.176697,860.895142 
	C846.176697,779.075256 846.176697,697.346252 846.176697,615.269287 
	C880.986877,615.269287 915.875793,615.269287 951.108643,615.269287 
	C951.108643,626.560181 951.108643,637.956665 951.108643,649.935059 
	C929.136169,649.935059 907.108154,649.935059 884.872070,649.935059 
	C884.872070,671.789490 884.872070,693.067200 884.872070,715.123169 
	C888.031799,715.123169 891.275208,715.123169 895.015320,715.123169 
z"/>
<path fill="#EFEFEF" opacity="1.000000" stroke="none" 
	d="
M1305.622559,712.952637 
	C1307.113525,714.007324 1308.590454,715.039124 1310.074585,715.049927 
	C1326.060425,715.166809 1342.047485,715.122803 1358.408325,715.122803 
	C1358.408325,726.763977 1358.408325,738.160217 1358.408325,750.151489 
	C1341.078979,750.151489 1323.692505,750.151489 1305.961426,750.151489 
	C1305.961426,775.645874 1305.961426,800.553101 1305.961426,825.880493 
	C1327.779297,825.880493 1349.709229,825.880493 1372.009033,825.880493 
	C1372.009033,837.685181 1372.009033,849.082031 1372.009033,860.832275 
	C1337.292847,860.832275 1302.392822,860.832275 1267.196655,860.832275 
	C1267.196655,779.138794 1267.196655,697.384338 1267.196655,615.275452 
	C1301.949097,615.275452 1336.838379,615.275452 1372.055298,615.275452 
	C1372.055298,626.624756 1372.055298,638.030273 1372.055298,649.994629 
	C1350.107666,649.994629 1328.035889,649.994629 1305.611694,649.994629 
	C1305.611694,671.184631 1305.611694,691.820068 1305.622559,712.952637 
z"/>
<path fill="#012040" opacity="1.000000" stroke="none" 
	d="
M772.738892,715.833618 
	C766.917542,720.293701 760.430420,720.449158 753.898376,720.426453 
	C750.421387,720.414368 746.944275,720.424255 743.163330,720.424255 
	C743.163330,696.949585 743.163330,673.743835 743.163330,650.251343 
	C750.169067,650.251343 757.149353,649.771362 764.034729,650.374268 
	C772.406128,651.107300 778.132629,655.783875 778.714355,664.173462 
	C779.652405,677.700195 779.408386,691.358032 778.736084,704.914551 
	C778.555176,708.563660 775.024109,712.046692 772.738892,715.833618 
z"/>
<path fill="#001F3F" opacity="1.000000" stroke="none" 
	d="
M1202.032959,779.000000 
	C1202.020752,787.828918 1202.145630,796.160767 1201.966553,804.486084 
	C1201.642334,819.557800 1195.009766,826.005737 1180.081177,826.031494 
	C1174.452515,826.041260 1168.823853,826.033081 1162.963501,826.033081 
	C1162.963501,767.253723 1162.963501,708.884216 1162.963501,650.262268 
	C1170.746582,650.262268 1178.419922,649.676331 1185.966187,650.406555 
	C1196.013428,651.378784 1201.380981,658.316833 1201.884888,670.060242 
	C1202.220215,677.875977 1202.025879,685.715393 1202.028809,693.544250 
	C1202.039307,721.862854 1202.032959,750.181396 1202.032959,779.000000 
z"/>
<path fill="#001F3F" opacity="1.000000" stroke="none" 
	d="
M582.997559,716.000000 
	C582.997559,744.151001 582.999573,771.802063 582.993408,799.453064 
	C582.992920,801.617981 583.030640,803.789185 582.888489,805.946777 
	C581.970032,819.883911 575.466064,825.989685 561.540649,826.030090 
	C555.741516,826.046936 549.942261,826.032898 543.892822,826.032898 
	C543.892822,767.276123 543.892822,708.908447 543.892822,650.352844 
	C551.800537,650.352844 559.656555,649.666443 567.341003,650.521973 
	C577.555359,651.659119 582.710083,658.982422 582.907654,671.525940 
	C583.138489,686.180786 582.984558,700.841736 582.997559,716.000000 
z"/>
<path fill="#042242" opacity="1.000000" stroke="none" 
	d="
M1447.573730,720.455566 
	C1442.655640,720.460144 1438.194336,720.460144 1433.479248,720.460144 
	C1433.479248,696.898926 1433.479248,673.834045 1433.479248,649.654724 
	C1441.710571,650.112122 1450.022583,649.866089 1458.063965,651.223938 
	C1465.799561,652.530151 1469.388672,659.078674 1469.760132,666.229919 
	C1470.396973,678.493347 1470.652710,690.866577 1469.738892,703.094360 
	C1468.883667,714.538574 1461.934326,719.379944 1447.573730,720.455566 
z"/>
</svg>