 <svg version="1.0" xmlns="http://www.w3.org/2000/svg"  width="300.000000pt" height="225.000000pt" viewBox="0 0 300.000000 225.000000"  preserveAspectRatio="xMidYMid meet">  <g transform="translate(0.000000,225.000000) scale(0.100000,-0.100000)" fill="#F8F4F1" stroke="none"> <path d="M948 1516 l-548 -61 0 -330 0 -330 550 -60 550 -61 550 61 550 60 0 330 0 330 -538 58 c-295 32 -544 60 -552 62 -8 1 -261 -25 -562 -59z m717 3 c39 -5 135 -16 215 -24 396 -43 661 -74 670 -80 6 -4 10 -109 10 -291 l0 -284 -22 -9 c-13 -4 -99 -16 -193 -25 -93 -10 -204 -21 -245 -26 -41 -5 -118 -14 -170 -20 -52 -6 -158 -17 -235 -26 -185 -21 -219 -20 -440 6 -114 13 -142 17 -315 35 -353 38 -483 54 -492 63 -4 4 -7 136 -6 292 l3 284 30 7 c17 4 100 14 185 23 85 9 196 21 245 26 99 12 222 25 330 36 39 4 90 10 115 14 58 10 225 10 315 -1z"/> <path d="M551 1342 c-26 -21 -34 -37 -38 -73 -5 -41 -2 -48 21 -66 35 -28 35 -76 2 -106 -42 -37 -38 -97 8 -143 28 -28 42 -34 75 -34 23 0 56 7 73 16 29 15 34 15 61 -1 22 -13 42 -16 84 -12 110 11 133 50 133 223 0 141 -13 177 -74 205 -54 25 -116 24 -148 0 -24 -19 -25 -19 -54 0 -44 28 -102 25 -143 -9z m110 -12 c5 0 18 -9 29 -20 27 -27 28 -112 1 -139 -18 -18 -18 -18 0 -30 15 -9 19 -24 19 -74 0 -71 -15 -101 -56 -111 -62 -16 -114 27 -114 94 0 27 3 30 30 30 28 0 30 -3 30 -35 0 -30 3 -35 24 -35 28 0 41 35 31 81 -6 28 -14 33 -42 30 -8 -1 -13 10 -13 28 0 23 5 30 23 33 19 3 22 9 22 48 0 38 -3 45 -20 45 -14 0 -21 -8 -23 -27 -3 -24 -8 -28 -33 -28 -25 0 -29 4 -29 29 0 51 53 97 98 85 8 -2 18 -4 23 -4z m244 -25 c24 -23 25 -29 25 -160 0 -131 -1 -137 -25 -160 -20 -21 -34 -25 -87 -25 l-63 0 0 185 0 185 63 0 c53 0 67 -4 87 -25z"/> <path d="M810 1145 l0 -136 28 3 27 3 0 130 0 130 -27 3 -28 3 0 -136z"/> <path d="M1075 1363 c-53 -14 -55 -23 -55 -218 0 -177 1 -182 23 -203 28 -26 45 -27 75 -6 20 14 25 14 51 -2 25 -15 34 -16 56 -6 18 8 32 9 45 2 23 -12 140 -13 159 -1 9 6 24 5 39 0 18 -7 31 -5 49 7 23 15 28 15 58 -2 28 -15 37 -16 64 -4 24 10 35 10 44 1 16 -16 100 -14 146 5 36 14 42 14 70 0 35 -19 142 -21 158 -5 9 9 19 9 42 0 25 -11 33 -10 55 4 18 12 30 14 39 8 22 -18 53 -21 78 -8 19 11 28 11 51 -1 35 -18 82 -18 118 1 63 33 79 126 34 202 l-26 44 26 24 c42 39 28 106 -30 150 -28 21 -93 18 -133 -6 -33 -20 -36 -20 -63 -4 -37 22 -110 30 -150 16 -21 -8 -35 -8 -42 -1 -18 18 -128 12 -162 -9 -30 -18 -33 -18 -55 -3 -17 11 -43 16 -89 15 -36 -1 -84 -2 -108 -2 -24 -1 -52 -5 -62 -11 -15 -8 -26 -6 -45 6 -21 14 -32 15 -61 6 -25 -7 -44 -7 -65 0 -41 14 -136 5 -156 -15 -14 -13 -19 -14 -37 -2 -23 15 -110 27 -141 18z m1367 -52 c9 -9 20 -33 23 -53 7 -37 7 -38 -23 -38 -26 0 -31 4 -34 27 -3 29 -32 43 -50 25 -18 -18 2 -62 52 -114 74 -76 78 -162 7 -196 -56 -27 -113 6 -124 72 -5 35 -5 36 25 36 26 0 31 -4 34 -27 2 -22 8 -28 28 -28 20 0 26 6 28 27 3 22 -8 39 -48 82 -54 57 -73 100 -63 146 12 64 97 88 145 41z m-1241 0 c20 -16 24 -28 24 -75 0 -39 -5 -60 -17 -72 -16 -16 -16 -18 0 -30 13 -9 18 -32 20 -93 l4 -81 -31 0 -31 0 0 68 c0 71 -10 92 -43 92 -17 0 -18 -7 -15 -80 l3 -80 -32 0 -33 0 0 185 0 185 64 0 c48 0 70 -5 87 -19z m227 -8 c-3 -24 -7 -26 -51 -27 l-49 -1 -2 -47 -2 -48 43 0 c41 0 43 -1 43 -30 0 -29 -2 -30 -41 -28 l-40 3 -2 -57 -2 -58 52 0 c50 0 53 -2 53 -25 0 -25 -1 -25 -80 -25 l-79 0 -3 185 -3 185 83 0 83 0 -3 -27z m133 -88 l27 -110 1 113 1 112 25 0 25 0 0 -185 0 -185 -30 0 c-33 0 -29 -9 -74 175 l-24 100 -1 -137 -1 -138 -25 0 -25 0 0 186 0 185 37 -3 38 -3 26 -110z m274 90 c24 -23 25 -29 25 -160 0 -131 -1 -137 -25 -160 -21 -22 -33 -25 -90 -25 l-65 0 0 185 0 185 65 0 c57 0 69 -3 90 -25z m223 -2 c-3 -26 -5 -27 -50 -24 l-48 3 0 -51 0 -51 40 0 c38 0 40 -2 40 -31 0 -30 -1 -31 -40 -24 l-40 7 0 -61 0 -61 50 0 c47 0 50 -2 50 -25 0 -25 -1 -25 -80 -25 l-80 0 0 185 0 185 81 0 80 0 -3 -27z m188 2 c19 -26 18 -119 -2 -139 -14 -15 -14 -17 0 -32 11 -11 16 -35 16 -79 0 -35 3 -71 6 -80 6 -14 1 -16 -27 -13 l-34 3 -5 75 c-5 68 -7 75 -27 78 -22 3 -23 1 -23 -77 l0 -81 -30 0 -30 0 0 186 0 186 71 -4 c55 -3 74 -8 85 -23z m-204 -247 c-12 -12 -42 -4 -42 12 0 6 10 14 23 19 16 6 23 5 25 -6 2 -8 -1 -20 -6 -25z m-622 17 c0 -9 -7 -18 -16 -22 -18 -7 -39 11 -30 26 11 17 46 13 46 -4z"/> <path d="M1110 1225 c0 -46 3 -55 18 -55 27 0 42 20 42 55 0 35 -15 55 -42 55 -15 0 -18 -9 -18 -55z"/> <path d="M1740 1144 l0 -135 28 3 27 3 3 124 c3 129 0 140 -40 141 -16 0 -18 -13 -18 -136z"/> <path d="M2150 1225 c0 -53 1 -56 23 -53 19 3 22 9 22 53 0 44 -3 50 -22 53 -22 3 -23 0 -23 -53z"/> </g> </svg> 