 <svg version="1.0" xmlns="http://www.w3.org/2000/svg"  width="300.000000pt" height="123.000000pt" viewBox="0 0 300.000000 123.000000"  preserveAspectRatio="xMidYMid meet">  <g transform="translate(0.000000,123.000000) scale(0.100000,-0.100000)" fill="#F8F4F1" stroke="none"> <path d="M1445 1213 c-51 -7 -1391 -153 -1403 -153 -9 0 -12 -108 -12 -439 l0 -438 37 -6 c21 -3 351 -40 734 -82 l697 -77 693 76 c382 42 711 79 732 82 l37 6 0 439 c0 357 -2 439 -13 439 -7 0 -317 34 -688 75 -734 81 -770 84 -814 78z m155 -43 c47 -5 110 -12 140 -16 99 -10 311 -34 343 -39 18 -2 82 -9 142 -15 61 -6 122 -14 137 -16 15 -2 92 -11 170 -19 321 -32 364 -38 376 -47 9 -8 12 -100 12 -397 0 -212 -4 -391 -8 -397 -4 -6 -36 -14 -72 -18 -92 -10 -134 -15 -225 -26 -44 -5 -226 -26 -405 -45 -434 -47 -410 -44 -538 -61 -141 -18 -202 -18 -344 0 -158 20 -200 25 -308 36 -52 5 -194 20 -315 34 -121 14 -308 35 -415 46 -107 12 -200 26 -207 32 -10 8 -13 99 -13 399 l0 389 23 10 c12 5 112 18 222 30 110 11 236 25 280 30 44 5 123 14 175 20 301 33 563 63 620 70 94 11 116 11 210 0z"/> <path d="M2655 935 c-5 -2 -22 -6 -37 -9 -15 -4 -39 -19 -53 -34 -18 -19 -29 -24 -39 -17 -74 54 -54 51 -261 47 -11 -1 -67 2 -124 4 -102 5 -104 5 -131 -21 l-28 -27 -32 23 c-41 31 -176 40 -214 16 -20 -14 -26 -14 -42 -2 -27 20 -62 18 -91 -5 -25 -19 -25 -19 -53 2 -22 16 -37 19 -72 14 -23 -3 -50 -6 -58 -5 -239 11 -220 13 -250 -16 l-28 -27 -32 23 c-23 18 -48 24 -100 27 -38 2 -81 1 -95 -2 -45 -11 -51 -43 -54 -282 l-3 -220 27 -32 c32 -38 70 -42 109 -11 l26 20 26 -20 c30 -23 65 -27 96 -10 15 8 26 8 42 -1 19 -10 94 -10 236 0 8 0 29 -2 47 -6 26 -5 37 -1 58 20 l26 27 30 -26 c35 -28 67 -32 108 -11 25 13 31 13 50 -1 35 -24 170 -15 211 15 l31 23 30 -25 c28 -24 39 -26 120 -26 50 0 98 4 107 9 11 6 33 5 60 -2 37 -10 45 -9 72 11 l31 23 26 -20 c31 -25 65 -27 99 -4 24 15 27 15 57 -2 45 -27 127 -26 163 1 45 33 67 70 72 122 6 63 -9 108 -54 160 -36 42 -37 62 -5 62 10 0 28 11 41 25 52 55 -14 173 -105 188 -16 2 -34 3 -40 2z m74 -49 c32 -17 51 -54 51 -101 0 -33 -2 -35 -35 -35 -32 0 -35 3 -35 28 0 50 -49 72 -70 31 -19 -34 -2 -73 56 -130 70 -68 84 -95 84 -159 0 -93 -47 -138 -131 -127 -48 6 -74 28 -89 73 -19 56 -11 76 33 79 35 2 37 1 37 -30 0 -53 48 -76 71 -34 19 37 -4 88 -70 152 -69 68 -89 120 -71 188 19 68 101 100 169 65z m-1628 -25 c26 -26 29 -36 29 -94 0 -50 -5 -70 -20 -90 l-21 -26 21 -21 c17 -17 20 -33 20 -102 0 -46 3 -93 6 -105 6 -21 3 -23 -34 -23 -39 0 -41 2 -46 33 -3 17 -4 60 -3 95 2 67 -7 82 -50 82 -22 0 -23 -3 -23 -105 l0 -105 -40 0 -40 0 0 245 0 245 86 0 c81 0 87 -1 115 -29z m299 -6 l0 -35 -70 0 -70 0 0 -65 0 -65 55 0 55 0 0 -35 0 -35 -55 0 -55 0 0 -75 0 -75 70 0 70 0 0 -35 0 -35 -107 0 -108 0 0 245 0 245 108 0 107 0 0 -35z m149 -2 c6 -21 21 -84 35 -141 13 -57 27 -106 31 -110 4 -4 5 59 2 141 l-6 147 37 0 37 0 0 -245 0 -245 -42 0 -41 0 -45 183 -46 182 0 -182 -1 -183 -35 0 -35 0 0 245 0 245 50 0 c48 0 49 -1 59 -37z m384 17 c37 -29 47 -76 47 -225 0 -217 -18 -245 -156 -245 l-84 0 0 245 0 245 84 0 c69 0 88 -4 109 -20z m307 -15 l0 -35 -67 0 -68 0 0 -65 0 -65 53 0 52 0 0 -35 0 -35 -52 0 -53 0 0 -75 0 -75 68 0 67 0 0 -35 0 -35 -107 0 -108 0 0 245 0 245 108 0 107 0 0 -35z m241 6 c26 -27 29 -36 29 -98 0 -56 -4 -74 -20 -91 l-20 -22 20 -20 c17 -17 20 -33 20 -102 0 -46 3 -93 6 -105 6 -21 3 -23 -34 -23 l-40 0 -4 96 c-4 101 -11 114 -55 114 -22 0 -23 -3 -23 -105 l0 -105 -40 0 -40 0 0 245 0 245 86 0 c81 0 87 -1 115 -29z m-1081 -122 c0 -39 0 -40 -22 -25 -12 9 -32 16 -45 16 -26 0 -35 12 -27 34 4 11 19 16 50 16 l44 0 0 -41z m840 -1 c0 -39 -1 -40 -18 -25 -10 10 -26 17 -34 17 -31 0 -46 11 -41 31 4 15 14 19 49 19 l44 0 0 -42z m338 -107 c32 -39 32 -51 2 -51 -23 0 -38 20 -46 58 -9 43 6 40 44 -7z m-1183 -119 c-8 -9 -78 -3 -89 8 -5 5 -6 20 -2 34 5 19 13 26 29 26 13 0 32 6 43 14 18 14 19 12 22 -31 2 -25 1 -48 -3 -51z m845 43 l0 -45 -44 0 c-47 0 -59 12 -49 49 3 13 13 21 27 21 11 0 28 5 36 10 26 17 30 11 30 -35z"/> <path d="M980 750 l0 -71 33 3 32 3 0 65 0 65 -32 3 -33 3 0 -71z"/> <path d="M1820 645 l0 -175 28 0 c48 0 52 12 52 175 0 163 -4 175 -52 175 l-28 0 0 -175z"/> <path d="M2360 751 c0 -67 1 -71 23 -71 41 0 48 13 45 76 -3 59 -3 59 -35 62 l-33 3 0 -70z"/> <path d="M255 912 c-41 -26 -52 -41 -66 -94 -11 -40 -10 -49 5 -72 9 -15 30 -29 45 -32 27 -6 28 -9 24 -44 -3 -20 0 -47 6 -59 11 -19 9 -21 -17 -21 -38 0 -72 -37 -72 -77 0 -133 152 -209 251 -126 l30 26 28 -27 c24 -23 35 -26 96 -26 89 0 146 26 170 77 15 30 18 66 18 197 0 187 -4 214 -41 249 -38 36 -73 47 -150 47 -57 0 -69 -3 -93 -26 l-26 -25 -38 25 c-47 32 -124 35 -170 8z m136 -28 c69 -35 79 -167 17 -215 l-21 -17 20 -6 c31 -10 46 -57 41 -131 -5 -80 -31 -113 -96 -122 -83 -11 -132 34 -132 121 0 44 0 44 34 44 34 0 35 -2 38 -40 3 -48 27 -70 56 -52 12 8 18 27 20 68 4 66 -8 86 -49 86 -26 0 -29 3 -29 35 0 32 2 35 30 35 34 0 50 23 50 70 0 42 -16 70 -40 70 -23 0 -44 -34 -37 -61 4 -16 -1 -19 -35 -19 l-41 0 6 45 c9 89 89 130 168 89z m311 -23 l33 -29 3 -164 c5 -248 -7 -268 -158 -268 l-80 0 0 245 0 245 85 0 c79 0 87 -2 117 -29z"/> <path d="M580 644 l0 -175 38 3 37 3 3 159 c3 172 -1 186 -49 186 l-29 0 0 -176z"/> </g> </svg> 